<?xml version="1.0" encoding="utf-8"?>
<!-- Generator: Adobe Illustrator 16.0.0, SVG Export Plug-In . SVG Version: 6.00 Build 0)  -->
<!DOCTYPE svg PUBLIC "-//W3C//DTD SVG 1.1//EN" "http://www.w3.org/Graphics/SVG/1.1/DTD/svg11.dtd">
<svg version="1.1" id="Livello_2" xmlns="http://www.w3.org/2000/svg" xmlns:xlink="http://www.w3.org/1999/xlink" x="0px" y="0px"
	 width="235.1518555px" height="70.4287109px" viewBox="0 0 235.1518555 70.4287109"
	 enable-background="new 0 0 235.1518555 70.4287109" xml:space="preserve">
<g>
	<path fill="#F6AD30" d="M30.4487305,20.9277344c2.09375,3.7749023,5.0849609,6.9594727,10.3662109,7.9516602
		c4.4023438,0.824707,7.5996094,3.4614258,8.543457,4.3173828c-0.0439453,0.1386719-0.0268555,0.3251953-0.0605469,0.4804688
		c-0.0498047,0.2714844-0.2758789,1.0708008-0.3349609,1.2460938c-0.0737305,0.206543-1.769043,1.4047852-2.1689453,2.0151367
		c-0.090332,0.1611328-1.8349609,3.0371094-1.7124023,3.421875c0.0625,0.2001953,1.5317383,1.0224609,3.0053711,0.8330078
		c1.1855469-0.1523438,2.4428711-1.296875,2.4570312-1.3818359c0.0576172-0.3779297,0.0224609-3.0263672,0.2216797-3.1025391
		c0.1538086-0.0585938,0.3461914,0.1074219,0.6147461,0.1220703c0.4013672,0.7001953,1.9370117,2.4130859,2.2578125,2.765625
		c1.0214844,1.1191406,1.7983398,0.9697266,2.2998047,0.4296875l1.2832031,0.8681641c0,0-0.1005859,0.0957031-0.2348633,0.5566406
		c-0.3359375,1.1552734,0.3193359,1.5908203,0.3193359,1.5908203s-0.4760742-1.4550781,0.5170898-1.9472656
		c0.652832-0.3251953,1.7875977-0.0625,1.7875977-0.0625s-0.4848633-0.8525391-1.6884766-0.5986328
		c-0.7700195,0.1640625-1.4907227-0.4970703-1.7197266-0.8027344c0.0864258-0.234375,0.1357422-0.7177734-0.2768555-0.9121094
		c-0.9692383-0.4609375-1.4296875-1.2236328-0.2553711-1.5830078c1.1723633-0.3583984,1.4453125,1.1640625,1.7602539,1.1982422
		s0.5551758-0.5371094,0.5551758-0.5371094l1.1728516,0.8564453c0,0-0.4311523,0.6220703-0.1977539,1.0429688
		c0.234375,0.4208984,0.7050781,0.5,0.7050781,0.5s-0.8310547-0.9951172,0.7202148-1.5341797
		c0.6894531-0.2373047,1.3623047-0.0566406,1.3623047-0.0566406s-0.3774414-0.8056641-1.730957-0.2402344
		c-0.7387695,0.3105469-1.4594727-0.6191406-1.6757812-0.9101562c0,0,0.6274414-0.1748047,0.5170898-0.5
		c-0.1098633-0.3222656-2.269043-0.2597656-1.5581055-2.0146484c0.4604492-1.1333008,1.5834961-0.5961914,4.3642578-2.6137695
		c2.7802734-2.0175781,3.4926758-2.3256836,4.0800781-2.480957c1.0385742-0.2685547,1.2548828,0.6132812,1.2548828,0.6132812
		s0.0522461-0.0537109,0.1499023-0.5878906c0.2583008-1.4160156-1.4057617-1.3422852-1.4057617-1.3422852
		s-0.7207031-1.3901367-2.9912109-0.5483398c-1.9780273,0.7348633-2.0244141,0.0961914-5.2021484,0l5.5961914-7.7988281
		c1.7236328-2.4130859,3.5493164-7.7651367,3.1464844-10.6303711c-0.4038086-2.8681641-2.2861328-5.487793-3.0571289-6.9345703
		c-0.3579102-0.6723633-0.5625-0.3217773-0.4072266,0.4975586c0.1796875,0.9521484,0.5498047,2.65625,0.5961914,2.9384766
		c0.2685547,1.6049805-0.690918-2.0400391-0.9311523-0.0703125c0.0410156,1.4863281,0.4111328,3.5688477,0.0537109,2.4780273
		c-0.4125977-1.2631836-1.0761719-2.4301758-0.6044922,0.4179688c0.1298828,0.7856445-0.0141602,0.9438477-0.1455078,1.0512695
		c-0.3037109,0.2490234-0.4975586-2.0966797-0.9125977-0.4604492c-0.5991211,2.3481445-0.1850586,2.09375-1.2758789,4.6030273
		c-1.0908203,2.5151367-4.9067383,4.3745117-6.6943359,6.3242188c-1.0834961,1.1811523-0.940918,4.3740234-1.2670898,6.1572266
		c0.6484375,0.4804688,1.3789062,0.6469727,1.3789062,0.6469727s-0.4707031,0.1015625-1.8681641-0.6186523
		c-0.8886719-0.5341797-1.7094727-2.3286133-3.0473633-3.1791992c-3.0869141-1.9609375-6.9189453-3.4301758-9.2924805-4.78125
		c-2.3735352-1.3505859-8.565918-5.9365234-11.5615234-9.0986328c-0.9946289-1.0512695-1.0356445-0.1074219-0.7060547,0.5761719
		c0.3305664,0.6899414,2.1513672,2.4614258,2.480957,2.9418945c-0.1826172-0.144043-0.6616211-0.4467773-1.8720703-1.0908203
		c-1.534668-0.8164062-1.6040039,0.0029297-1.1430664,0.4804688c0.4619141,0.4775391,3.9926758,3.9897461,3.9926758,3.9897461
		s-3.5942383-2.3256836-3.5097656-1.8339844c0.0849609,0.4946289,1.7099609,2.065918,1.7099609,2.065918
		c3.6904297,3.3061523,2.8295898,2.5795898,2.8295898,2.5795898s-3.1293945-1.4804688-2.0327148-0.1098633L30.4487305,20.9277344
		L30.4487305,20.9277344z M23.8886719,0h62.453125v70.4287109h-62.453125V0L23.8886719,0z"/>
	<path fill="#004594" d="M12.6547852,43.3525391h9.2050781v-3.6425781h-9.3149414C3.9716797,39.7099609,0,43.1494141,0,50.5527344
		c0,3.7919922,1.3364258,6.5302734,4.081543,8.2509766c2.5986328,1.6308594,5.0849609,1.8369141,8.3149414,1.8369141h9.4633789
		v-3.6455078h-9.2050781c-4.4150391,0-6.3081055-1.3701172-6.3461914-5.1289062h15.5512695v-3.6445312H6.3466797
		C6.5698242,44.9267578,8.6098633,43.3525391,12.6547852,43.3525391L12.6547852,43.3525391z"/>
	<path fill="#004594" d="M37.3408203,60.640625h7.0883789v-3.4707031h-6.6069336c-2.375,0-3.9711914-0.2626953-5.1582031-1.3701172
		c-0.8916016-0.8164062-0.9282227-2.0683594-0.9282227-3.7890625c0-0.2626953,0-0.5253906,0-0.8164062v-11.484375h-5.6049805
		v12.4472656c0,2.7695312,0.371582,4.6064453,2.4130859,6.2958984C30.9189453,60.4345703,33.4794922,60.640625,37.3408203,60.640625
		L37.3408203,60.640625z"/>
	<polygon fill="#004594" points="78.3022461,43.3808594 78.3022461,60.640625 84.0922852,60.640625 84.0922852,43.3808594 
		92.7407227,43.3808594 92.7407227,39.7382812 69.690918,39.7382812 69.690918,43.3808594 78.3022461,43.3808594 	"/>
	<polygon fill="#004594" points="102.1445312,43.3808594 102.1445312,60.640625 107.9360352,60.640625 107.9360352,43.3808594 
		116.5825195,43.3808594 116.5825195,39.7382812 93.534668,39.7382812 93.534668,43.3808594 102.1445312,43.3808594 	"/>
	<path fill-rule="evenodd" clip-rule="evenodd" fill="#004594" d="M119.3061523,39.7099609V60.640625h5.6054688v-8.2207031
		h6.6064453l5.8632812,8.2207031h6.3095703l-6.6455078-8.7460938c3.453125-0.5820312,5.3828125-2.6533203,5.3828125-5.8886719
		c0-4.4023438-3.0068359-6.2958984-9.3134766-6.2958984H119.3061523L119.3061523,39.7099609z M131.777832,43.4404297
		c3.3398438,0,4.9736328,0.4658203,4.9736328,2.625c0,2.125-1.6337891,2.6503906-4.9736328,2.6503906h-6.8662109v-5.2753906
		H131.777832L131.777832,43.4404297z"/>
	<polygon fill="#004594" points="153.0581055,60.640625 153.0581055,39.7099609 147.1918945,39.7099609 147.1918945,60.640625 
		153.0581055,60.640625 	"/>
	<path fill="#004594" d="M169.5688477,43.2929688h9.2070312v-3.5830078h-9.3193359
		c-8.5703125,0-12.5439453,3.4394531-12.5439453,10.8427734c0,3.7919922,1.3369141,6.5302734,4.0830078,8.2509766
		c2.6005859,1.6308594,5.0839844,1.8369141,8.3164062,1.8369141h9.4638672v-3.6455078h-9.2070312
		c-4.7128906,0-6.5322266-1.5742188-6.5322266-6.2675781C163.0366211,45.5400391,164.855957,43.2929688,169.5688477,43.2929688
		L169.5688477,43.2929688z"/>
	<path fill-rule="evenodd" clip-rule="evenodd" fill="#004594" d="M191.8110352,43.2929688h4.0458984
		c2.9306641,0,4.3037109,0.7607422,4.3037109,2.5380859s-1.4130859,2.5058594-4.3037109,2.5058594h-4.0458984
		c-2.9335938,0-4.34375-0.7285156-4.34375-2.5058594S188.8774414,43.2929688,191.8110352,43.2929688L191.8110352,43.2929688z
		 M191.7338867,51.9228516h4.1230469c2.890625,0,4.3408203,0.7880859,4.3408203,2.5654297
		c0,1.8085938-1.4101562,2.5664062-4.3408203,2.5664062h-4.1230469c-2.9296875,0-4.3027344-0.7578125-4.3027344-2.5664062
		C187.4311523,52.7109375,188.8041992,51.9228516,191.7338867,51.9228516L191.7338867,51.9228516z M184.980957,50.1455078
		c-2.6337891,0.9042969-3.8603516,2.4785156-3.8603516,4.8974609c0,3.5576172,2.8935547,5.5976562,8.2763672,5.5976562h8.8339844
		c5.3798828,0,8.2392578-2.0712891,8.2392578-5.5693359c0-2.4785156-1.1865234-4.0214844-3.859375-4.9257812
		c2.3369141-1.2832031,3.5263672-3.0039062,3.5263672-5.0722656c0-3.6728516-2.8964844-5.3632812-8.7597656-5.3632812h-7.2001953
		c-5.9033203,0-8.7597656,1.6591797-8.7597656,5.4199219C181.4174805,47.1699219,182.6040039,48.8349609,184.980957,50.1455078
		L184.980957,50.1455078z"/>
	<path fill-rule="evenodd" clip-rule="evenodd" fill="#004594" d="M221.8286133,57.4619141
		c-5.0869141,0-7.3867188-2.3320312-7.3867188-7.2597656c0-4.9248047,2.2998047-7.2871094,7.3867188-7.2871094
		c5.0830078,0,7.4199219,2.3623047,7.4199219,7.2871094C229.2485352,55.1298828,226.9116211,57.4619141,221.8286133,57.4619141
		L221.8286133,57.4619141z M221.8647461,60.9316406c9.0566406,0,13.2871094-3.4111328,13.2871094-10.7294922
		c0-7.3154297-4.2304688-10.7578125-13.2871094-10.7578125c-9.0556641,0-13.3232422,3.4423828-13.3232422,10.7578125
		C208.5415039,57.5205078,212.809082,60.9316406,221.8647461,60.9316406L221.8647461,60.9316406z"/>
	<path fill="#004594" d="M58.9628906,43.3525391h9.2050781v-3.6425781h-9.3164062
		c-8.5732422,0-12.5449219,3.4394531-12.5449219,10.8427734c0,3.7919922,1.3349609,6.5302734,4.0830078,8.2509766
		c2.5986328,1.6308594,5.0849609,1.8369141,8.3134766,1.8369141h9.4648438v-3.6455078h-9.2050781
		c-4.4165039,0-6.3095703-1.3701172-6.3461914-5.1289062h15.5512695v-3.6445312H52.6533203
		C52.8764648,44.9267578,54.9179688,43.3525391,58.9628906,43.3525391L58.9628906,43.3525391z"/>
</g>
</svg>
