<?xml version="1.0" encoding="utf-8"?>
<!-- Generator: Adobe Illustrator 16.0.0, SVG Export Plug-In . SVG Version: 6.00 Build 0)  -->
<!DOCTYPE svg PUBLIC "-//W3C//DTD SVG 1.1//EN" "http://www.w3.org/Graphics/SVG/1.1/DTD/svg11.dtd">
<svg version="1.1" id="Livello_1" xmlns="http://www.w3.org/2000/svg" xmlns:xlink="http://www.w3.org/1999/xlink" x="0px" y="0px"
	 width="94.608px" height="46.165px" viewBox="136.243 0 94.608 46.165" enable-background="new 136.243 0 94.608 46.165"
	 xml:space="preserve">
<g>
	<g>
		<g>
			<path fill="#E2E2E2" d="M213.606,11.968h-11.062h-11.064c-0.8,0-1.453,0.654-1.453,1.454v31.29c0,0.804,0.653,1.453,1.453,1.453
				h11.064h11.062c0.799,0,1.453-0.649,1.453-1.453v-31.29C215.059,12.622,214.405,11.968,213.606,11.968z M202.541,13.523
				c0.283,0,0.509,0.225,0.509,0.509c0,0.282-0.226,0.516-0.509,0.516s-0.519-0.233-0.519-0.516
				C202.025,13.748,202.258,13.523,202.541,13.523z M202.541,45.018c-0.676,0-1.223-0.545-1.223-1.221
				c0-0.668,0.547-1.213,1.223-1.213s1.222,0.545,1.222,1.213C203.762,44.473,203.217,45.018,202.541,45.018z M212.944,41.377
				h-20.807V16.217h20.807V41.377z"/>
		</g>
		<path fill="#E2E2E2" d="M157.546,45.118h19.821v-0.924h-19.821V45.118z M197.485,0h-60.058c-0.651,0-1.184,0.532-1.184,1.184
			v36.318c0,0.648,0.529,1.185,1.184,1.185h50.114v-2.94h-48.203V2.946h56.232v6.772h3.097V1.184C198.668,0.532,198.135,0,197.485,0
			z M167.457,36.243c0.55,0,0.994,0.445,0.994,0.988c0,0.551-0.444,0.994-0.994,0.994c-0.554,0-0.994-0.443-0.994-0.994
			C166.463,36.688,166.906,36.243,167.457,36.243z M167.457,1.965c-0.264,0-0.478-0.207-0.478-0.468c0-0.26,0.214-0.473,0.478-0.473
			c0.26,0,0.473,0.213,0.473,0.473C167.929,1.758,167.717,1.965,167.457,1.965z M173.622,39.413h-12.331
			c0,0-0.083,2.824-2.118,4.146h16.567C173.704,42.237,173.622,39.413,173.622,39.413z"/>
		<path fill="#E2E2E2" d="M229.554,23.271h-9.393c-0.716,0-1.301,0.584-1.301,1.299v20.287c0,0.715,0.585,1.3,1.301,1.3h9.393
			c0.714,0,1.298-0.585,1.298-1.3V24.571C230.852,23.856,230.268,23.271,229.554,23.271z M223.759,24.292h2.2
			c0.104,0,0.191,0.045,0.191,0.109c0,0.059-0.091,0.111-0.191,0.111h-2.2c-0.11,0-0.195-0.053-0.195-0.111
			C223.563,24.336,223.648,24.292,223.759,24.292z M224.855,45.293c-0.506,0-0.915-0.416-0.915-0.922
			c0-0.517,0.409-0.922,0.915-0.922c0.516,0,0.922,0.405,0.922,0.922C225.777,44.877,225.368,45.293,224.855,45.293z M229.71,42.542
			h-9.703V25.504h9.703V42.542z"/>
	</g>
</g>
</svg>
